<?xml version="1.0" encoding="utf-8"?>
<!-- Generator: Adobe Illustrator 24.1.0, SVG Export Plug-In . SVG Version: 6.00 Build 0)  -->
<svg version="1.1" id="Layer_1" xmlns="http://www.w3.org/2000/svg" xmlns:xlink="http://www.w3.org/1999/xlink" x="0px" y="0px"
	 viewBox="0 0 85 85" style="enable-background:new 0 0 85 85;" xml:space="preserve">
<style type="text/css">
	.st0{fill:#FFFFFF;}
	.st1{fill:#0F7B41;}
</style>
<g>
	<g>
		<path class="st0" d="M48.8,58.2l6.4-11.9l6.4,11.9h7.6L58.8,42.6l10.3-15.8h-7.6l-6.4,12.1l-6.4-12.1l-7.6,0l10.3,15.8l-8.4,12.7
			c-0.1,1-0.4,2.4-0.5,2.9H48.8z"/>
	</g>
	<g>
		<path class="st1" d="M82,3.5H28.4c-0.7,0-1.3,0.6-1.3,1.3v30.6c9.1,1.2,16.1,8.9,16.1,18.3c0,0.5,0,1-0.1,1.5l8.4-12.7L41.2,26.8
			l7.6,0l6.4,12.1l6.4-12.1h7.6L58.8,42.6l10.3,15.6h-7.6l-6.4-11.9l-6.4,11.9h-6.2c-1.8,7.3-7.9,12.9-15.5,13.9v8.1
			c0,0.7,0.6,1.3,1.3,1.3H82c0.7,0,1.3-0.6,1.3-1.3V4.8C83.3,4.1,82.7,3.5,82,3.5z"/>
	</g>
	<g>
		<path class="st1" d="M82,3.5H28.4c-0.7,0-1.3,0.6-1.3,1.3v30.6c9.1,1.2,16.1,8.9,16.1,18.3c0,0.5,0,1-0.1,1.5l8.4-12.7L41.2,26.8
			l7.6,0l6.4,12.1l6.4-12.1h7.6L58.8,42.6l10.3,15.6h-7.6l-6.4-11.9l-6.4,11.9h-6.2c-1.8,7.3-7.9,12.9-15.5,13.9v8.1
			c0,0.7,0.6,1.3,1.3,1.3H82c0.7,0,1.3-0.6,1.3-1.3V4.8C83.3,4.1,82.7,3.5,82,3.5z"/>
	</g>
	<path class="st1" d="M38.3,53.9c0-7.6-6.2-13.8-13.8-13.8s-13.8,6.2-13.8,13.8c0,3.3,1.2,6.3,3.1,8.7L2.2,74.1
		c-0.6,0.6-0.6,1.5,0,2.1c0.6,0.6,1.5,0.6,2.1,0l11.5-11.5c2.4,1.9,5.4,3.1,8.7,3.1C32.1,67.8,38.3,61.5,38.3,53.9L38.3,53.9z
		 M35.4,53.7c0,5.9-4.8,10.7-10.7,10.7s-10.7-4.8-10.7-10.7S18.7,43,24.7,43S35.4,47.8,35.4,53.7z"/>
</g>
</svg>
